<?xml version="1.0" encoding="iso-8859-1"?>
<!-- Uploaded to: SVG Repo, www.svgrepo.com, Generator: SVG Repo Mixer Tools -->
<svg height="800px" width="800px" version="1.1" id="Layer_1" xmlns="http://www.w3.org/2000/svg" xmlns:xlink="http://www.w3.org/1999/xlink" 
	 viewBox="0 0 512 512" xml:space="preserve">
<g transform="translate(1 1)">
	<path style="fill:#FFDD09;" d="M33.133,50.04v341.333H316.44v-68.267L319,321.4c6.827-3.413,14.507,0,17.067,7.68l6.827,18.773
		c4.267,11.947,19.627,11.947,23.04,0l6.827-18.773c2.56-7.68,10.24-11.093,17.067-7.68l3.413,1.707v68.267h83.627V50.04H33.133z"/>
	<path style="fill:#FFFFFF;" d="M7.533,391.373h25.6V50.04h-25.6V391.373z"/>
	<path style="fill:#FD9808;" d="M476.867,391.373h25.6V50.04h-25.6V391.373z"/>
	<g>
		<path style="fill:#54C9FD;" d="M378.733,161.827l6.827,18.773c2.56,7.68,11.947,11.093,19.627,7.68l17.067-8.533
			c11.947-5.973,24.747,6.827,18.773,18.773l-8.533,17.067c-3.413,7.68,0,16.213,7.68,19.627l18.773,6.827
			c11.947,4.267,11.947,21.333,0,25.6l-18.773,6.827c-7.68,2.56-11.093,11.947-7.68,19.627l8.533,17.067
			c5.973,11.947-6.827,24.747-18.773,18.773l-17.067-8.533c-7.68-3.413-16.213,0-19.627,7.68l-6.827,18.773
			c-4.267,11.947-21.333,11.947-25.6,0l-6.827-18.773c-2.56-7.68-11.947-11.093-19.627-7.68l-17.067,8.533
			c-11.947,5.973-24.747-6.827-18.773-18.773l8.533-17.067c3.413-7.68,0-16.213-7.68-19.627l-18.773-6.827
			c-11.947-4.267-11.947-21.333,0-25.6l18.773-6.827c7.68-2.56,11.093-11.947,7.68-19.627l-8.533-17.067
			c-5.973-11.947,6.827-24.747,18.773-18.773l17.067,8.533c7.68,3.413,16.213,0,19.627-7.68l6.827-18.773
			C357.4,149.88,374.467,149.88,378.733,161.827"/>
		<path style="fill:#54C9FD;" d="M405.187,321.4c-7.68-3.413-16.213,0-19.627,7.68l-6.827,18.773
			c-4.267,11.947-21.333,11.947-25.6,0l-6.827-18.773c-2.56-7.68-11.947-11.093-19.627-7.68l-3.413,1.707V459.64l42.667-51.2
			l42.667,51.2V323.107L405.187,321.4z"/>
	</g>
	<path style="fill:#FFDD09;" d="M400.067,254.84c0,18.773-15.36,34.133-34.133,34.133S331.8,273.613,331.8,254.84
		s15.36-34.133,34.133-34.133S400.067,236.067,400.067,254.84"/>
	<path d="M365.933,365.773c-9.387,0-17.92-5.973-21.333-14.507l-6.827-19.627c-0.853-1.707-2.56-2.56-3.413-3.413
		c-0.853,0-2.56-0.853-4.267,0l-17.067,8.533c-8.533,4.267-18.773,2.56-25.6-4.267s-8.533-17.067-4.267-25.6l8.533-17.067
		c0.853-1.707,0.853-3.413,0-4.267c0-0.853-0.853-2.56-3.413-3.413l-18.773-6.827C260.973,271.907,255,263.373,255,253.987
		c0-9.387,5.973-17.92,14.507-21.333l18.773-6.827c1.707-0.853,2.56-2.56,3.413-3.413c0.853-0.853,0.853-2.56,0-4.267l-8.533-17.067
		c-4.267-8.533-2.56-18.773,4.267-25.6c6.827-6.827,17.067-8.533,25.6-4.267l17.067,8.533c1.707,0.853,3.413,0.853,4.267,0
		c0.853,0,2.56-0.853,3.413-3.413l6.827-18.773c3.413-8.533,11.947-14.507,21.333-14.507l0,0c9.387,0,17.92,5.973,21.333,14.507
		l6.827,18.773c0.853,1.707,2.56,2.56,3.413,3.413c0.853,0,2.56,0.853,4.267,0l17.067-8.533c8.533-4.267,18.773-2.56,25.6,4.267
		c6.827,6.827,8.533,17.067,4.267,25.6l-8.533,17.067c-0.853,1.707-0.853,3.413,0,4.267c0.853,0.853,0.853,2.56,3.413,3.413
		l18.773,6.827c8.533,3.413,14.507,11.947,14.507,21.333c0,9.387-5.973,17.92-14.507,21.333l-18.773,6.827
		c-1.707,0.853-2.56,2.56-3.413,3.413c0,0.853-0.853,2.56,0,4.267l8.533,17.067c4.267,8.533,2.56,18.773-4.267,25.6
		s-17.067,8.533-25.6,4.267l-17.067-8.533c-1.707-0.853-3.413-0.853-4.267,0c-0.853,0-2.56,0.853-3.413,3.413l-6.827,18.773
		C383.853,359.8,375.32,365.773,365.933,365.773L365.933,365.773z M332.653,311.16c2.56,0,5.973,0.853,8.533,1.707
		c5.973,2.56,10.24,6.827,12.8,12.8l6.827,18.773c0.853,3.413,4.267,3.413,5.12,3.413l0,0c0.853,0,3.413,0,5.12-3.413l6.827-18.773
		c2.56-5.973,6.827-11.093,12.8-12.8c5.973-2.56,12.8-1.707,17.92,0.853l17.067,8.533c3.413,1.707,5.12,0,5.973-0.853
		s2.56-3.413,0.853-5.973l-8.533-17.067c-2.56-5.973-3.413-11.947-0.853-17.92c2.56-5.973,6.827-10.24,12.8-12.8l18.773-6.827
		c5.12-2.56,5.12-5.12,5.12-5.973s0-3.413-3.413-5.12l-18.773-6.827c-5.973-2.56-11.093-6.827-12.8-12.8
		c-2.56-5.973-1.707-12.8,0.853-17.92l8.533-17.067c1.707-3.413,0-5.12-0.853-5.973c-0.853-0.853-3.413-2.56-5.973-0.853
		l-17.067,8.533c-5.973,2.56-11.947,3.413-17.92,0.853c-5.973-2.56-10.24-6.827-12.8-12.8l-6.827-18.773l0,0
		c-2.56-5.12-5.973-5.12-6.827-5.12l0,0c-0.853,0-4.267,0-5.12,3.413l-6.827,18.773c-2.56,5.973-6.827,11.093-12.8,12.8
		c-5.973,2.56-12.8,1.707-17.92-0.853l-17.067-8.533c-3.413-1.707-5.12,0-5.973,0.853c-0.853,0.853-2.56,3.413-0.853,5.973
		l8.533,17.067c2.56,5.973,3.413,11.947,0.853,17.92c-2.56,5.973-6.827,10.24-12.8,12.8l-18.773,6.827
		c-4.267,2.56-5.12,5.973-5.12,6.827s0,4.267,3.413,5.12l18.773,6.827c5.973,2.56,11.093,6.827,12.8,12.8
		c2.56,5.973,1.707,12.8-0.853,17.92l-8.533,17.067c-1.707,3.413,0,5.12,0.853,5.973c0.853,0.853,3.413,2.56,5.973,0.853
		l17.067-8.533C325.827,312.013,329.24,311.16,332.653,311.16z"/>
	<path d="M408.6,468.173c-2.56,0-5.12-0.853-6.827-3.413l-35.84-42.667l-35.84,43.52c-2.56,2.56-5.973,3.413-9.387,2.56
		c-3.413-1.707-5.973-5.12-5.973-8.533V323.107c0-3.413,1.707-5.973,5.12-7.68l3.413-1.707c5.973-2.56,11.947-3.413,17.92-0.853
		c5.973,2.56,10.24,6.827,12.8,12.8l6.827,18.773c0.853,3.413,4.267,3.413,5.12,3.413l0,0c0.853,0,4.267,0,5.12-3.413l6.827-18.773
		c2.56-5.973,6.827-11.093,12.8-12.8c5.973-2.56,12.8-1.707,17.92,0.853l0,0l3.413,1.707c2.56,1.707,5.12,4.267,5.12,7.68V459.64
		c0,3.413-2.56,6.827-5.973,7.68C410.307,468.173,409.453,468.173,408.6,468.173z M365.933,399.907c2.56,0,5.12,0.853,6.827,3.413
		l27.307,33.28V328.227c-1.707,0-2.56,0-2.56,0c-0.853,0-2.56,0.853-3.413,3.413l-6.827,18.773
		c-3.413,8.533-11.947,14.507-21.333,14.507l0,0c-9.387,0-17.92-5.973-21.333-14.507l-6.827-18.773
		c-0.853-1.707-2.56-2.56-3.413-3.413c-0.853,0-1.707-0.853-2.56,0v107.52l27.307-33.28
		C360.813,400.76,363.373,399.907,365.933,399.907z"/>
	<path d="M365.933,297.507c-23.893,0-42.667-18.773-42.667-42.667s18.773-42.667,42.667-42.667
		c23.893,0,42.667,18.773,42.667,42.667S389.827,297.507,365.933,297.507z M365.933,229.24c-14.507,0-25.6,11.093-25.6,25.6
		c0,14.507,11.093,25.6,25.6,25.6s25.6-11.093,25.6-25.6C391.533,240.333,380.44,229.24,365.933,229.24z"/>
	<path d="M502.467,399.907H408.6c-5.12,0-8.533-3.413-8.533-8.533v-63.147c-0.853,0-2.56,0-2.56,0c-0.853,0-2.56,0.853-3.413,3.413
		l-6.827,18.773c-3.413,8.533-11.947,14.507-21.333,14.507l0,0c-9.387,0-17.92-5.973-21.333-14.507l-6.827-18.773
		c-0.853-1.707-2.56-2.56-3.413-3.413c-0.853,0-1.707-0.853-2.56,0v63.147c0,5.12-3.413,8.533-8.533,8.533H7.533
		c-5.12,0-8.533-3.413-8.533-8.533V50.04c0-5.12,3.413-8.533,8.533-8.533h494.933c5.12,0,8.533,3.413,8.533,8.533v341.333
		C511,396.493,507.587,399.907,502.467,399.907z M417.133,382.84h76.8V58.573H16.067V382.84h298.667v-59.733
		c0-3.413,1.707-5.973,5.12-7.68l3.413-1.707c5.973-2.56,11.947-3.413,17.92-0.853c5.973,2.56,10.24,6.827,12.8,12.8l6.827,18.773
		c0.853,3.413,4.267,3.413,5.12,3.413l0,0c0.853,0,4.267,0,5.12-3.413l6.827-18.773c2.56-5.973,6.827-10.24,12.8-12.8
		c5.973-2.56,12.8-1.707,17.92,0.853l3.413,1.707c2.56,1.707,5.12,4.267,5.12,7.68L417.133,382.84L417.133,382.84z"/>
	<path d="M246.467,178.04H58.733c-5.12,0-8.533-3.413-8.533-8.533c0-5.12,3.413-8.533,8.533-8.533h187.733
		c5.12,0,8.533,3.413,8.533,8.533C255,174.627,251.587,178.04,246.467,178.04z"/>
	<path d="M297.667,126.84H58.733c-5.12,0-8.533-3.413-8.533-8.533s3.413-8.533,8.533-8.533h238.933c5.12,0,8.533,3.413,8.533,8.533
		S302.787,126.84,297.667,126.84z"/>
	<path d="M212.333,229.24h-153.6c-5.12,0-8.533-3.413-8.533-8.533c0-5.12,3.413-8.533,8.533-8.533h153.6
		c5.12,0,8.533,3.413,8.533,8.533C220.867,225.827,217.453,229.24,212.333,229.24z"/>
	<path d="M169.667,280.44H58.733c-5.12,0-8.533-3.413-8.533-8.533c0-5.12,3.413-8.533,8.533-8.533h110.933
		c5.12,0,8.533,3.413,8.533,8.533C178.2,277.027,174.787,280.44,169.667,280.44z"/>
	<path d="M152.6,340.173H58.733c-5.12,0-8.533-3.413-8.533-8.533c0-5.12,3.413-8.533,8.533-8.533H152.6
		c5.12,0,8.533,3.413,8.533,8.533C161.133,336.76,157.72,340.173,152.6,340.173z"/>
</g>
</svg>